<svg xmlns="http://www.w3.org/2000/svg" viewBox="0 0 240 240" width="240" height="240" role="img" aria-label="Mango Soda"><defs><linearGradient id="bgmangosoda" x1="0" y1="0" x2="0" y2="1"><stop offset="0" stop-color="#FFFFFF"/><stop offset="1" stop-color="#FDF0D9"/></linearGradient><clipPath id="cupmangosoda"><path d="M78.0 84.0 L162.0 84.0 L147.0 188.0 Q147.0 196.0 139.0 196.0 L101.0 196.0 Q93.0 196.0 93.0 188.0 Z"/></clipPath><linearGradient id="glmangosoda" x1="0" y1="0" x2="1" y2="0"><stop offset="0" stop-color="#FFFFFF" stop-opacity=".34"/><stop offset=".22" stop-color="#FFFFFF" stop-opacity="0"/><stop offset=".82" stop-color="#FFFFFF" stop-opacity="0"/><stop offset="1" stop-color="#3A2110" stop-opacity=".1"/></linearGradient></defs><rect width="240" height="240" rx="28" fill="url(#bgmangosoda)"/><circle cx="120" cy="126" r="76" fill="#FFFFFF" opacity=".55"/><g transform="rotate(12 120 120)"><rect x="126" y="40" width="9" height="86" rx="4.5" fill="#C4161C" opacity=".92"/><rect x="126" y="40" width="9" height="86" rx="4.5" fill="url(#glmangosoda)"/></g><path d="M78.0 84.0 L162.0 84.0 L147.0 188.0 Q147.0 196.0 139.0 196.0 L101.0 196.0 Q93.0 196.0 93.0 188.0 Z" fill="#FFFFFF" opacity=".92"/><g clip-path="url(#cupmangosoda)"><rect x="70" y="100.0" width="100" height="96.0" fill="#FBD98A"/><rect x="70" y="140.32" width="100" height="55.68000000000001" fill="#F0A32C"/><ellipse cx="120" cy="140.32" rx="52" ry="5.5" fill="#FBD98A" opacity=".55"/><g fill="#FFFFFF" opacity=".3"><rect x="96" y="122" width="19" height="19" rx="5" transform="rotate(-16 105 131)"/><rect x="124" y="134" width="17" height="17" rx="5" transform="rotate(20 132 142)"/><rect x="103" y="152" width="16" height="16" rx="5" transform="rotate(8 111 160)"/></g><rect x="70" y="80" width="100" height="120" fill="url(#glmangosoda)"/></g><path d="M78.0 84.0 L162.0 84.0 L147.0 188.0 Q147.0 196.0 139.0 196.0 L101.0 196.0 Q93.0 196.0 93.0 188.0 Z" fill="none" stroke="#DFCDB4" stroke-width="2.6"/><ellipse cx="120" cy="84.0" rx="42.0" ry="7" fill="#FFFFFF" stroke="#DFCDB4" stroke-width="2.6"/><g transform="translate(152,73)"><circle cx="0" cy="0" r="12" fill="#F6D64A"/><circle cx="0" cy="0" r="9" fill="#FCEFA6"/><g stroke="#F6D64A" stroke-width="1.4"><path d="M0 -9 V9"/><path d="M-9 0 H9"/><path d="M-6.4 -6.4 L6.4 6.4"/><path d="M-6.4 6.4 L6.4 -6.4"/></g></g></svg>