<svg xmlns="http://www.w3.org/2000/svg" viewBox="0 0 240 240" width="240" height="240" role="img" aria-label="OuR Barista Drink"><defs><linearGradient id="bgourbaristadrink" x1="0" y1="0" x2="0" y2="1"><stop offset="0" stop-color="#FFFFFF"/><stop offset="1" stop-color="#F6E9DE"/></linearGradient><clipPath id="cupourbaristadrink"><path d="M78.0 84.0 L162.0 84.0 L147.0 188.0 Q147.0 196.0 139.0 196.0 L101.0 196.0 Q93.0 196.0 93.0 188.0 Z"/></clipPath><linearGradient id="glourbaristadrink" x1="0" y1="0" x2="1" y2="0"><stop offset="0" stop-color="#FFFFFF" stop-opacity=".34"/><stop offset=".22" stop-color="#FFFFFF" stop-opacity="0"/><stop offset=".82" stop-color="#FFFFFF" stop-opacity="0"/><stop offset="1" stop-color="#3A2110" stop-opacity=".1"/></linearGradient></defs><rect width="240" height="240" rx="28" fill="url(#bgourbaristadrink)"/><circle cx="120" cy="126" r="76" fill="#FFFFFF" opacity=".55"/><g transform="rotate(12 120 120)"><rect x="126" y="40" width="9" height="86" rx="4.5" fill="#C4161C" opacity=".92"/><rect x="126" y="40" width="9" height="86" rx="4.5" fill="url(#glourbaristadrink)"/></g><path d="M78.0 84.0 L162.0 84.0 L147.0 188.0 Q147.0 196.0 139.0 196.0 L101.0 196.0 Q93.0 196.0 93.0 188.0 Z" fill="#FFFFFF" opacity=".92"/><g clip-path="url(#cupourbaristadrink)"><rect x="70" y="112.0" width="100" height="84.0" fill="#C08A52"/><rect x="70" y="147.28" width="100" height="48.72" fill="#3F2515"/><ellipse cx="120" cy="147.28" rx="52" ry="5.5" fill="#C08A52" opacity=".55"/><rect x="70" y="80" width="100" height="120" fill="url(#glourbaristadrink)"/></g><path d="M78.0 84.0 L162.0 84.0 L147.0 188.0 Q147.0 196.0 139.0 196.0 L101.0 196.0 Q93.0 196.0 93.0 188.0 Z" fill="none" stroke="#DFCDB4" stroke-width="2.6"/><ellipse cx="120" cy="84.0" rx="42.0" ry="7" fill="#FFFFFF" stroke="#DFCDB4" stroke-width="2.6"/><g><path d="M79 86 C79 62 97 48 120 48 C143 48 161 62 161 86 C152 80 146 88 136 82 C126 76 116 86 106 80 C96 74 88 88 79 86 Z" fill="#FFF9F0" stroke="#EADBC4" stroke-width="2"/><path d="M97 66 C102 58 110 54 120 54" stroke="#FFFFFF" stroke-width="3.4" fill="none" stroke-linecap="round" opacity=".9"/></g><g transform="translate(150,40)"><path d="M0 0 C3 -9 9 -13 14 -14" stroke="#6B4A2A" stroke-width="2.2" fill="none" stroke-linecap="round"/><circle cx="0" cy="3" r="7.5" fill="#C4161C"/><circle cx="-2.4" cy="0.6" r="2.2" fill="#fff" opacity=".45"/></g></svg>